<svg width="197" height="58" viewBox="0 0 197 58" fill="none" xmlns="http://www.w3.org/2000/svg">
<path d="M24.0419 28.5942C23.8585 29.0147 23.5756 29.1823 23.1758 29.0794C23.1585 28.6545 23.1209 28.2178 23.1238 27.7811C23.7012 28.1413 24.0043 28.4163 24.0433 28.5942H24.0419ZM106.653 1.30268C106.509 1.31016 106.368 1.33584 106.231 1.37913C106.08 1.4247 105.925 1.4504 105.768 1.45559C105.903 0.960737 106.067 0.474655 106.26 0C106.24 0.0617522 106.318 0.25142 106.456 0.566062C106.595 0.880704 106.67 1.13065 106.653 1.30268ZM102.445 2.81855C102.475 2.9715 102.452 3.13025 102.381 3.26845C102.311 3.34785 102.181 3.36843 101.94 3.36402C102.089 3.16452 102.258 2.98167 102.445 2.81855ZM112.815 2.15986C111.881 3.49488 111.388 5.06221 111.371 6.87214C111.371 7.18678 111.4 7.88811 111.439 8.97759C111.468 9.70645 111.456 10.4364 111.404 11.1639C111.299 12.4872 111.13 14.5956 110.941 17.5229C110.879 17.8606 110.797 18.1941 110.694 18.5212C110.588 18.864 110.518 19.2175 110.486 19.5754C110.486 19.7225 110.59 20.0004 110.802 20.3929C111.028 20.8105 111.159 21.1281 111.157 21.3574C111.157 21.5236 111.003 21.8941 110.709 22.4749C110.414 23.0556 110.239 23.4305 110.239 23.5982C110.239 23.8025 110.455 24.4406 110.849 25.5095C111.243 26.5784 111.44 27.2062 111.439 27.3783C111.438 27.5503 111.261 28.2913 110.924 29.5984C110.586 30.9055 110.388 31.6568 110.387 31.8612C110.413 32.3403 110.491 32.815 110.618 33.2771C110.841 34.1828 110.95 34.7091 111.029 34.8944C110.711 34.8917 110.395 34.8523 110.086 34.7768C109.929 34.7268 109.768 34.6908 109.604 34.6694C109.433 34.6697 109.268 34.734 109.141 34.8503C109.024 34.9494 108.886 35.0198 108.738 35.0561C108.672 34.9451 108.584 34.8495 108.48 34.7753C108.336 34.6694 108.259 34.5915 108.18 34.5239C108.447 33.5682 108.663 32.2008 108.901 30.4306C109.051 29.4677 109.145 28.4966 109.181 27.5224C109.181 27.3547 108.988 26.4035 108.538 24.7068C108.087 23.01 107.851 22.0749 107.852 21.9014C107.853 21.7279 107.996 21.3295 108.302 20.6679C108.608 20.0062 108.735 19.6387 108.735 19.5196C108.735 19.352 108.574 19.0505 108.2 18.605C107.826 18.1596 107.651 17.8699 107.663 17.7346C107.674 17.5994 107.836 17.245 108.132 16.679C108.391 16.2293 108.58 15.7412 108.691 15.2322C108.774 14.6897 108.789 13.8898 108.786 12.8298C108.786 11.458 108.786 10.6552 108.802 10.4288C108.946 8.88643 109.248 6.65159 109.609 3.70513C109.993 3.36402 110.395 3.06702 110.8 2.7318C111.406 2.22896 111.751 1.75259 111.793 1.40854C111.973 1.55557 112.292 1.79375 112.813 2.15397L112.815 2.15986ZM97.2428 5.99584C96.5384 6.09876 95.9567 6.07818 95.4948 5.92086C95.616 5.95026 95.9191 5.64003 96.4258 4.99752C96.4431 5.36656 96.7015 5.69737 97.2428 5.99584ZM96.2324 18.2375C96.1636 18.2811 96.1022 18.3357 96.0505 18.3992C95.997 18.4513 95.9338 18.492 95.8647 18.5187C95.7955 18.5455 95.7217 18.5579 95.6478 18.5551C95.5034 18.5551 95.2407 18.4286 94.9073 18.1478C94.6821 17.9581 94.4382 17.7405 94.1856 17.5597C92.937 16.6951 91.4864 15.1146 89.8553 12.7695C87.3235 9.12315 85.8704 7.06474 85.4961 6.59425C85.7011 5.90321 86.0258 5.41802 86.43 5.12396C87.3639 6.66924 88.8102 9.01582 90.9046 12.1475C90.9407 12.2005 91.879 13.0106 93.6616 14.625C95.0747 15.9056 95.935 17.1245 96.2295 18.2301L96.2324 18.2375ZM108.969 3.46988C108.976 3.96831 108.899 5.22541 108.724 7.27058C108.551 9.29076 108.252 12.0975 107.946 15.6865C107.887 16.0632 107.755 16.4242 107.558 16.7481C107.292 17.2289 107.171 17.5567 107.169 17.7288C107.168 17.9008 107.314 18.211 107.602 18.6815C107.891 19.152 108.035 19.449 108.035 19.596C108.035 19.768 107.891 20.0856 107.602 20.5223C107.314 20.9825 107.169 21.2883 107.169 21.4604C107.169 21.6324 107.383 22.7101 107.852 24.695C108.321 26.6799 108.555 27.7635 108.554 27.9414C108.554 28.6765 108.307 30.4321 107.897 33.1918C107.816 33.7185 107.671 34.2328 107.464 34.7224C107.261 34.7806 107.05 34.8025 106.84 34.7871C106.398 34.7738 105.958 34.4607 105.541 33.8461C105.098 34.0284 104.228 34.4504 102.881 35.1252C101.83 35.6531 101.209 35.9486 101.068 35.9486C100.202 35.9486 99.3242 35.4854 98.4264 34.5856C98.4406 34.3307 98.5034 34.081 98.6111 33.8505C98.7454 33.5314 98.8161 33.3124 98.8565 33.2021C97.8663 31.0466 97.3149 29.3999 97.2688 28.2663C97.3496 28.1487 97.25 28.0943 97.0089 28.0958C96.814 28.1013 96.6222 28.1463 96.4445 28.2281C96.2598 28.3046 96.1227 28.3751 96.0418 28.4089C95.9766 28.9567 95.8656 29.4978 95.7098 30.0263C95.5655 30.5041 95.0863 31.2025 94.4108 32.2023C93.9133 32.911 93.4786 33.6633 93.1117 34.4504C92.8331 34.0519 92.3466 33.6255 91.7346 33.1844C90.8267 32.5316 90.2753 32.1552 90.0949 32.0185C89.9765 31.6495 89.7383 31.1584 89.4814 30.5482C89.1032 30.138 88.4638 29.4514 87.6266 28.4898C86.6711 30.288 86.3737 32.8389 86.6739 36.1441C86.5122 35.6978 86.3133 35.2664 86.0792 34.8547C85.8772 35.1488 85.6534 35.4428 85.4513 35.7369C85.4918 35.5898 85.3518 35.5384 85.0905 35.5487C84.9707 35.5487 84.7282 35.7545 84.3832 36.1368C84.0382 36.5191 83.777 36.7176 83.6369 36.7249C83.2544 36.744 82.9557 36.175 82.6641 35.037C82.4071 34.0343 82.2931 33.2462 82.3566 32.6845C82.659 32.4466 82.9193 32.1577 83.126 31.8303C83.0379 29.9895 82.8979 28.1443 82.7608 26.2961C82.7492 26.1491 82.8055 25.6066 82.9051 24.645C83.0047 23.6834 83.1014 22.985 83.1202 22.519C83.1491 21.8176 83.035 20.7546 82.8994 19.349C82.7897 18.1992 82.6973 17.0348 82.5804 15.8909C82.5427 15.2868 82.5601 14.6804 82.6323 14.0795C82.7182 13.4089 82.7476 12.7321 82.7204 12.0564C82.6887 11.4357 82.5499 10.8255 82.3104 10.2538C82.3321 9.91564 82.3263 9.38045 82.3408 8.62913C82.3552 7.87781 82.7536 7.05739 83.5619 6.17522C83.7221 6.359 83.9011 6.6163 84.1595 6.92801C84.7022 6.97506 85.0833 7.07504 85.2825 7.21177C86.6956 9.24665 88.113 11.283 89.5825 13.2944C92.4693 17.2534 94.4988 19.2201 95.6709 19.1946C95.8513 19.1946 96.28 19.0314 96.9786 18.6933C97.6161 18.3999 98.2067 18.0108 98.7309 17.5391C99.0196 17.2612 99.3718 16.7628 99.7255 15.9938C99.9993 15.3689 100.305 14.7589 100.641 14.1662C101.755 12.5092 102.882 10.8404 104.028 9.17608C105.417 7.16031 106.308 5.42684 106.693 4.00066C106.739 3.82863 107.034 3.51252 107.582 3.05232C108.027 2.67704 108.494 2.32895 108.979 2.00989C108.997 2.50243 108.963 2.9891 108.971 3.46988H108.969ZM105.831 35.0973C104.923 35.8663 104.357 36.2471 104.157 36.2397C103.956 36.2324 103.556 36.0148 102.976 35.6001C103.096 35.6001 103.499 35.4899 104.131 35.2737C104.763 35.0576 105.198 34.9473 105.478 34.9576C105.545 34.954 105.612 34.9653 105.674 34.9907C105.736 35.0161 105.792 35.055 105.838 35.1046L105.831 35.0973ZM97.3611 31.1378C97.3611 31.3348 97.1634 31.8391 96.7087 32.5949C96.1313 33.5594 95.7748 34.1534 95.6521 34.4371C95.6521 34.2401 95.5251 33.974 95.2956 33.6755C95.1008 33.3942 94.8193 33.1872 94.4959 33.0874C94.8813 32.4993 95.2638 31.8862 95.6507 31.2878C96.215 30.4203 96.5052 29.6513 96.4893 28.9735C97.0667 29.9924 97.3481 30.7114 97.3554 31.1422L97.3611 31.1378ZM98.9763 36.0794C98.6271 36.049 98.2783 36.1425 97.989 36.3441C98.1998 36.0833 98.3964 35.8109 98.5779 35.5281C98.6902 35.7264 98.8238 35.9113 98.9763 36.0794ZM82.182 17.7126C82.1011 17.7126 82.0203 17.7258 81.9409 17.7258C81.8413 17.4979 81.7634 17.2656 81.684 17.026C81.7621 16.9725 81.8431 16.9234 81.9265 16.8789C81.9836 17.1649 82.0692 17.4443 82.182 17.7126ZM89.6142 33.0992C89.6142 33.2462 89.6012 33.5917 89.568 34.146C89.5352 34.5475 89.5256 34.9505 89.5392 35.3531C89.1177 35.3752 88.5287 35.3722 87.8922 35.3531C87.6309 35.3414 87.4707 35.3678 87.4303 35.4531C87.4126 35.1023 87.3608 34.7541 87.2759 34.4136C87.1989 34.0904 87.1473 33.7615 87.1214 33.43C87.1113 33.2006 87.3321 31.9259 87.8301 29.6072C88.23 29.9013 88.6283 30.41 89.0051 31.1275C89.3468 31.7322 89.5547 32.4056 89.6142 33.1006V33.0992ZM79.8667 27.8429C79.7455 27.8429 79.6661 27.8429 79.565 27.8635C79.5275 27.5253 79.5087 27.193 79.4712 26.8548C79.5722 26.8416 79.6718 26.8401 79.7729 26.8284C79.7902 27.1724 79.8292 27.5047 79.8667 27.8429ZM80.9767 34.0372L80.675 34.0578C80.6394 33.5108 80.6029 32.9629 80.5653 32.414L80.867 32.3949C80.9175 32.9418 80.9348 33.4961 80.9767 34.0372ZM131.161 13.412C131.143 13.5781 131.055 14.1471 130.847 15.1072C130.689 15.776 130.577 16.4556 130.514 17.1406C130.332 17.1789 129.491 16.8466 127.909 16.1276C128.61 16.3952 129.089 16.0144 129.402 15.0102C129.603 14.3677 129.691 13.5002 129.72 12.4107C129.76 12.4342 130.064 12.5577 130.602 12.7739C131.005 12.9327 131.187 13.1532 131.161 13.412ZM129.743 18.2169C129.721 18.5374 129.377 19.0256 128.75 19.7004L127.986 19.6063C127.95 18.9417 128.216 18.3375 128.762 17.792C128.93 17.8422 129.091 17.9134 129.242 18.0037C129.398 18.0997 129.567 18.1716 129.743 18.2169ZM127.481 16.9863C127.259 17.3024 127.096 17.617 126.913 17.9375C126.813 17.8464 126.713 17.7552 126.614 17.6567C126.816 17.3421 126.979 17.0201 127.182 16.6996C127.282 16.7966 127.382 16.8951 127.481 16.9936V16.9863ZM127.229 15.7939C126.683 16.2163 125.838 16.4305 124.693 16.4364C124.391 16.6422 124.044 17.2965 123.682 18.3889C123.32 19.4813 123.105 20.4547 123.06 21.2869C123.028 21.9705 123.271 22.8557 123.782 23.9246C123.441 23.901 123.119 23.8731 122.758 23.8496C121.97 21.5456 121.529 20.29 121.537 20.0945C121.553 19.6945 122.032 18.1581 122.933 15.4924C122.994 15.4924 123.253 15.4366 123.777 15.3337C124.088 15.2613 124.405 15.2263 124.723 15.2293C125.117 15.2893 125.506 15.3818 125.886 15.5057C126.324 15.6486 126.774 15.7471 127.23 15.7997L127.229 15.7939ZM132.724 32.5552C132.522 32.7463 132.34 32.9448 132.158 33.13C131.993 32.9261 131.848 32.7065 131.725 32.4743C131.725 32.142 131.75 31.8156 131.773 31.4818C132.209 31.5274 132.528 31.8891 132.724 32.5478V32.5552ZM130.218 28.6412C130.201 29.0162 129.81 29.7204 129.14 30.7599C127.489 30.9088 125.85 31.1671 124.232 31.5333C124.027 31.5774 123.816 31.7994 123.646 32.1097C123.476 32.4199 123.34 32.7272 123.357 33.0168C122.393 32.9418 121.94 32.6375 121.957 32.0891C121.975 31.7728 122.023 31.4591 122.102 31.1525C122.185 30.8587 122.241 30.5574 122.268 30.2527C122.65 30.1145 123.233 30.0674 124.036 30.1307L124.678 30.1821C124.967 30.2056 125.18 30.2218 125.341 30.2336C126.351 30.3071 127.073 30.1968 127.532 29.9616C128.204 29.6175 128.624 28.8912 128.687 27.7135C128.708 27.28 128.69 26.8455 128.635 26.4152C129.196 26.4858 129.758 26.549 130.3 26.627C130.276 27.2974 130.237 27.9693 130.206 28.6412H130.218ZM127.682 35.781C127.667 36.1559 127.393 36.447 126.872 36.6352C126.585 36.7537 126.277 36.8141 125.967 36.8131L121.27 36.3044C118.32 35.9868 116.754 35.8207 116.593 35.8089C116.294 35.8201 116 35.891 115.727 36.0177C115.461 36.1424 115.174 36.2133 114.882 36.2265C114.902 36.2265 114.015 35.8868 112.197 35.1973C112.588 33.727 112.944 32.2435 113.33 30.7688C113.5 30.1159 113.568 28.9441 113.594 27.2504C113.604 26.5917 113.398 24.9346 113.044 22.2661C112.92 21.328 112.872 20.0195 112.848 18.3507C112.83 17.1745 112.82 15.8394 112.848 14.3486C112.898 12.224 112.907 11.4786 112.903 12.1064C112.924 11.8476 113.099 11.4536 113.434 10.8904C113.748 10.3597 114.082 10.098 114.402 10.1141C114.603 10.1259 114.965 10.2391 115.465 10.4596C115.964 10.6802 116.306 10.7993 116.507 10.8169C116.707 10.8346 117.026 10.7493 117.452 10.6008C117.76 10.4772 118.087 10.4091 118.418 10.3994C118.619 10.4111 119.221 10.5846 120.202 10.9243C121.184 11.2639 121.79 11.4491 121.986 11.4609C122.146 11.4712 122.451 11.3639 122.973 11.1227C123.496 10.8816 123.818 10.7684 124.02 10.7846C124.222 10.8007 124.584 10.9463 125.141 11.2639C125.699 11.5815 126.062 11.7461 126.243 11.7564C126.454 11.7264 126.654 11.6447 126.827 11.5183C127.051 11.3533 127.324 11.2727 127.6 11.2904C127.813 11.3163 128.018 11.3885 128.202 11.5021C128.373 11.6121 128.564 11.6879 128.763 11.7256C128.928 12.9039 128.858 14.1039 128.558 15.2543C126.814 14.7294 125.551 14.4735 124.768 14.4147C123.945 14.353 123.402 14.4338 123.059 14.6397C122.596 14.919 122.108 15.8336 121.595 17.3832C121.146 18.7344 120.909 19.6651 120.893 20.1768C120.883 20.5517 121.484 22.0514 122.653 24.6685C123.816 24.8082 125.622 25.1611 127.994 25.7624C127.973 25.8183 128.021 25.9389 128.092 26.1447C128.153 26.3643 128.173 26.594 128.148 26.821C128.093 27.887 127.831 28.5707 127.331 28.8883C126.963 29.1235 126.345 29.2191 125.523 29.1588C125.422 29.1588 125.243 29.1176 124.98 29.0809C124.76 29.0515 124.558 29.05 124.457 29.0412C123.554 28.9691 122.933 29.0956 122.487 29.4102C121.904 29.8219 121.584 30.6595 121.527 31.9229C121.491 32.6978 121.901 33.3756 122.659 33.8681C123.181 34.2153 123.781 34.4236 124.402 34.4739C124.547 34.4842 124.929 34.3416 125.511 34.0225C126.093 33.7035 126.478 33.5623 126.638 33.5814C126.979 33.6167 127.216 33.9225 127.416 34.4636C127.584 34.8798 127.677 35.3237 127.689 35.7736L127.682 35.781ZM129.434 38.0364C128.485 38.6706 127.76 38.9558 127.259 38.8921C127.099 38.873 126.799 38.7098 126.259 38.4128C125.719 38.1158 125.336 37.9717 124.996 37.9452C124.834 37.9335 123.329 37.8776 120.557 37.8056C117.927 37.7379 115.918 37.6424 114.513 37.4968C114.283 37.282 114.063 37.0553 113.855 36.8175C114.297 36.7837 116.927 36.9572 121.785 37.3424C121.907 37.3527 122.268 37.3983 122.829 37.4718C123.391 37.5453 123.874 37.5909 124.255 37.6188C126.845 37.8394 128.203 37.288 128.264 35.8545C128.271 35.5327 128.246 35.2109 128.189 34.8944C128.43 34.9238 128.691 34.9532 128.932 34.9885C129.339 35.947 129.511 36.992 129.434 38.0335V38.0364ZM114.772 41.0784C114.529 41.2637 114.327 41.346 114.207 41.3401C114.207 40.6565 114.314 40.3109 114.555 40.3403C114.682 40.5661 114.756 40.8187 114.772 41.0784ZM154.04 28.6942C153.976 29.372 153.792 29.8101 153.57 29.9851C153.62 29.7608 153.696 29.5432 153.795 29.3367C153.937 29.0206 154.039 28.8059 154.04 28.6942ZM161.357 21.625C161.017 21.5956 159.752 21.478 157.643 21.2898C156.118 21.1428 154.934 20.9854 154.091 20.7811C153.467 20.9693 152.955 21.5736 152.473 22.5895C152.425 22.691 152.184 23.4629 151.695 24.8847C150.973 27.018 150.491 28.9618 150.396 30.7364C150.358 31.3951 150.152 33.0786 149.761 35.7898C149.352 38.6142 149.105 40.7256 149.056 42.1238C148.752 42.6796 148.568 43.081 148.547 43.3339C147.546 42.7913 146.67 42.4517 145.949 42.3267C145.641 42.2972 145.332 42.2972 145.025 42.3267C144.711 42.3554 144.394 42.351 144.081 42.3135C142.476 42.0385 140.113 40.9579 137.008 39.1421C137.829 39.5606 138.964 40.063 140.413 40.6491C141.731 41.1814 142.578 41.4519 142.899 41.5136C142.917 41.5136 143.581 41.5563 144.826 41.6386C145.753 41.6863 146.678 41.7815 147.596 41.9239C148.02 41.5328 148.369 40.3668 148.563 38.4069C148.498 39.0612 148.625 37.5247 149.035 33.8049C149.323 31.1363 149.661 28.4633 149.99 25.7933C150.052 25.4503 150.192 25.127 150.399 24.8494C150.653 24.473 150.809 24.2039 150.825 24.0334C150.9 23.0178 151.075 22.0125 151.347 21.0325C151.426 20.7561 151.717 20.4944 152.095 20.1959C152.473 19.8974 152.76 19.768 152.942 19.8033C153.504 19.9121 154.404 20.0665 155.61 20.2547C156.815 20.4429 157.676 20.6032 158.198 20.7267C158.719 20.8502 159.263 20.7267 159.868 20.39C160.074 19.5446 160.445 18.311 160.895 16.6951C161.014 17.1495 161.102 17.9243 161.162 19.0094C161.227 20.1856 161.269 21.0531 161.366 21.625H161.357ZM159.442 19.6343C156.349 19.5549 154.823 19.5171 154.863 19.521C154.703 19.4843 154.41 19.2961 153.942 18.9961C153.63 18.7758 153.286 18.6075 152.922 18.4977C152.62 18.4418 152.216 18.6918 151.691 19.2329C151.165 19.7739 150.816 20.2621 150.657 20.7032C149.917 22.7498 149.417 24.573 149.196 26.1859C148.848 28.703 148.57 31.2319 148.303 33.7534C148.036 36.275 147.769 38.7995 147.571 41.3196C146.771 40.8079 146.151 40.5109 145.729 40.4374C145.529 40.4036 145.168 40.4609 144.703 40.5844C144.135 40.7254 143.544 40.7369 142.971 40.6182C142.769 40.5844 141.877 40.1595 140.286 39.4214C138.311 38.5054 136.942 37.9644 136.179 37.6659C136.461 34.5489 136.79 31.9318 137.074 29.7969C137.359 27.662 137.621 26.0197 137.93 24.8729C138.632 25.0199 139.094 24.989 139.336 24.7832C139.358 24.5244 139.4 24.273 139.421 24.0142C139.003 23.6775 138.541 23.6305 137.997 23.8863C138.215 21.256 138.43 18.6198 138.63 15.9821C137.812 15.0999 136.931 14.6014 136.149 14.5C136.104 14.4884 136.058 14.4866 136.012 14.4948C135.966 14.503 135.923 14.521 135.885 14.5475C135.847 14.5741 135.814 14.6086 135.79 14.6488C135.766 14.6891 135.751 14.7341 135.745 14.7808C135.741 14.8259 135.727 14.8696 135.705 14.9088C135.683 14.948 135.652 14.9817 135.616 15.0076C135.579 15.0336 135.538 15.051 135.494 15.0588C135.45 15.0666 135.405 15.0646 135.362 15.0528C135.039 14.9879 134.723 14.8894 134.42 14.7588C134.08 14.6136 133.732 14.488 133.378 14.3824C133.233 13.9589 132.922 13.4193 132.444 12.7562C132.649 12.3151 132.877 11.9035 133.056 11.4844C133.311 10.9119 133.439 10.2886 133.428 9.6598C136.892 10.5876 140.42 11.5315 143.915 12.5842C144.11 12.643 144.798 12.643 145.983 12.6518C147.168 12.6607 147.851 12.6871 148.072 12.7254C148.293 12.7636 148.649 12.9665 149.227 13.3899C149.777 13.784 150.127 14.0119 150.288 14.0427C150.448 14.0736 150.79 14.0251 151.312 13.9192C151.674 13.8268 152.046 13.7911 152.418 13.8134C152.598 13.8428 152.896 14.0604 153.297 14.4368C153.698 14.8132 154.036 15.0249 154.238 15.0719C154.44 15.119 154.671 14.997 154.922 14.7779C155.211 14.525 155.448 14.4412 155.644 14.4838C155.962 14.6028 156.27 14.7473 156.565 14.9161C156.947 15.1237 157.35 15.2865 157.767 15.4013C157.956 15.4528 158.15 15.4746 158.345 15.466C158.826 15.7091 159.326 15.9482 159.846 16.1835C159.702 17.3421 159.557 18.4948 159.422 19.646L159.442 19.6343ZM137.608 16.3658C136.865 16.5922 135.86 16.629 134.577 16.4702C134.196 16.4231 134.037 16.0982 134.081 15.4998C134.361 15.6468 134.922 15.7939 135.813 15.9512C136.421 16.041 137.022 16.1797 137.608 16.3658ZM135.947 21.8059L134.584 21.2839C134.584 21.0002 134.911 20.5488 135.497 19.9239C135.676 20.1944 135.855 20.4576 136.054 20.734C136.032 21.0913 135.989 21.4486 135.947 21.8059ZM144.587 46.0657C144.367 46.1598 144.144 46.2524 143.944 46.3465C143.944 46.1995 143.944 46.0627 143.944 45.9157C144.105 45.8157 144.287 45.7157 144.489 45.6216C144.512 45.7731 144.544 45.9229 144.586 46.0701L144.587 46.0657ZM138.137 43.0942C137.934 43.0399 137.739 42.9562 137.559 42.8457C137.393 42.7501 137.219 42.6704 137.038 42.6075C137.302 42.2679 137.606 41.9341 137.904 41.593C137.982 42.0973 138.059 42.5958 138.137 43.0942ZM173.192 39.2714C173.14 39.5449 172.192 40.5212 170.441 42.2561C168.654 44.0278 167.593 44.8747 167.265 44.7821C167.046 44.7189 166.733 44.2895 166.369 43.5118C166.024 42.7434 165.633 41.9975 165.198 41.2784C164.661 40.4447 164.005 39.8919 163.241 39.689C161.999 39.3734 160.727 39.2012 159.448 39.1759C158.886 39.1568 158.264 39.5714 157.691 40.4727C157.187 41.2666 157 41.9606 156.995 42.4723C156.756 42.4237 156.536 42.3649 156.314 42.3252C155.653 42.2003 154.953 41.6063 154.217 40.5212C156.03 36.4897 157.923 32.4797 159.898 28.4913C161.873 24.5029 163.843 20.5439 165.809 16.6143C166.512 16.6849 167 16.9936 167.148 17.5803C167.568 19.2387 167.929 20.9193 168.303 22.5792C168.79 24.7435 169.3 26.9519 170.035 29.1456C170.588 30.8143 171.279 32.4317 171.891 34.0975C172.902 36.8366 173.335 38.5731 173.204 39.2803L173.192 39.2714ZM171.923 18.0655C171.635 18.3507 171.219 18.2125 170.64 17.6788C170.776 17.4674 170.932 17.2704 171.106 17.0907C171.085 17.2009 171.154 17.3362 171.383 17.5317C171.575 17.6965 171.755 17.8743 171.923 18.064V18.0655ZM174.64 32.7684C173.865 31.4451 173.55 30.4718 173.674 29.8734C173.797 29.6455 173.918 29.4043 174.061 29.175C174.783 29.9469 175.041 30.535 174.953 30.9746C174.833 31.5627 174.764 32.1699 174.64 32.7684ZM173.074 29.6499C172.952 29.6131 172.853 29.5837 172.753 29.5469C172.714 29.3191 172.655 29.0912 172.616 28.8574C172.717 28.8324 172.838 28.8133 172.958 28.7942C173 29.0809 173.038 29.3632 173.077 29.6469L173.074 29.6499ZM163.163 33.8461C162.441 34.1592 161.816 34.1195 161.317 33.7093C161.663 32.8639 162.132 31.673 162.746 30.1292C162.847 30.7425 162.917 31.3609 162.955 31.9817C162.993 32.6064 163.063 33.2286 163.163 33.8461ZM167.313 47.6668C167.179 47.9933 167.063 48.327 166.965 48.6666C166.884 48.5857 166.785 48.5063 166.705 48.4211C166.795 48.1327 166.911 47.8536 167.052 47.5874C167.153 47.6124 167.212 47.6359 167.313 47.6668ZM162.669 45.0203C162.329 44.9291 162.092 45.2144 162.041 45.8863C162.282 45.6197 162.494 45.3285 162.675 45.0173L162.669 45.0203ZM164.557 41.9665C164.16 41.1564 163.784 40.6917 163.442 40.6065C161.056 40.0066 159.43 39.9684 158.662 40.4197C158.421 40.5594 158.163 41.1637 157.847 42.2708C157.567 43.2486 157.255 43.6926 156.894 43.6132C156.572 43.5426 156.213 43.3192 155.793 42.9428C155.994 43.1646 156.174 43.4048 156.331 43.6603C156.52 43.947 156.67 44.1175 156.849 44.1558C157.427 44.2793 158.014 44.416 158.615 44.5454C158.817 44.5895 158.989 44.5807 159.098 44.463C159.208 44.3454 159.243 44.3013 159.22 44.2954C159.059 44.1793 159.013 43.9631 159.042 43.6559C159.103 42.9139 159.413 42.216 159.92 41.6798C160.415 41.1622 161.177 41.0093 162.171 41.2725C163.759 41.696 164.537 41.9606 164.557 41.9665ZM163.775 35.481C163.859 34.9811 163.934 34.4754 164.006 33.9769C164.039 33.7476 164.006 32.986 163.88 31.6745C163.743 30.2483 163.696 29.225 163.7 28.628C163.129 28.9432 162.597 29.3246 162.112 29.7646C161.746 30.6658 161.134 31.9862 160.34 33.7343C160.559 33.9858 160.751 34.2578 160.957 34.4945C161.232 34.8121 161.476 34.9561 161.656 34.9958C161.756 35.0164 161.978 35.0855 162.298 35.1884C162.659 35.3031 162.941 35.3825 163.12 35.4296C163.332 35.5003 163.558 35.517 163.778 35.4781L163.775 35.481ZM175.249 41.1152C173.21 43.3352 170.956 45.3396 168.521 47.0978C168.32 47.0434 168.042 46.645 167.685 45.8833C167.746 45.7907 168.813 44.738 170.979 42.8457C172.873 41.1916 173.902 40.1301 174.01 39.5332C174.127 38.9098 173.033 35.481 170.704 29.2205C170.71 28.394 170.579 27.5722 170.317 26.7902C169.123 23.3908 168.268 20.5649 168.102 18.1581C168.364 18.2419 168.624 18.3272 168.885 18.4183C169.413 20.5267 169.869 22.6381 170.309 24.7406C170.844 27.2945 171.352 29.419 171.916 31.104C172.711 33.4814 173.847 36.7822 175.246 41.1093L175.249 41.1152ZM196.997 35.609C196.734 36.05 196.509 36.5058 196.267 36.944C196.182 36.8966 196.095 36.8539 196.005 36.8161C196.249 36.375 196.473 35.9339 196.737 35.4928C196.823 35.5357 196.91 35.5735 197 35.606L196.997 35.609ZM195.285 36.3529C195.186 36.7484 194.716 37.2792 193.91 37.9555C193.475 37.7524 193.021 37.5972 192.554 37.4924C192.486 37.355 192.446 37.2049 192.436 37.0513C192.419 36.8862 192.38 36.7244 192.319 36.5705C192.66 36.6617 193.173 36.4632 193.889 36.0265C194.467 35.6736 194.917 35.3737 195.2 35.0752C195.202 35.2556 195.222 35.4353 195.258 35.6119C195.319 35.853 195.329 36.1045 195.288 36.35L195.285 36.3529ZM194.942 39.7346C194.721 39.864 194.499 40.0007 194.257 40.1316C194.077 40.0345 193.856 39.9375 193.68 39.8522C194.064 39.5846 194.366 39.3802 194.608 39.2185C194.745 39.3743 194.858 39.5497 194.945 39.739L194.942 39.7346ZM192.905 31.6789C192.302 31.8744 191.714 32.0582 191.134 32.267C190.447 32.5081 189.979 32.9271 189.8 33.4756C189.979 33.9166 190.196 34.5195 190.412 35.2634C189.735 34.1475 189.494 33.2241 189.646 32.5037C189.722 32.145 190.051 31.8979 190.616 31.7686C191.18 31.6392 191.742 31.5083 192.325 31.376C192.505 31.4671 192.706 31.5833 192.902 31.6862L192.905 31.6789ZM187.709 25.3743C187.219 25.4298 186.771 25.6778 186.459 26.0653C186.603 25.8629 186.79 25.6961 187.006 25.5773C187.222 25.4585 187.462 25.3906 187.707 25.3787L187.709 25.3743ZM187.094 24.0172C186.596 24.3775 186.198 24.8633 185.939 25.4272C185.738 25.3419 185.506 25.2655 185.337 25.1728C185.193 25.0934 185.152 24.8788 185.201 24.5641C185.279 24.0569 185.809 23.6481 186.776 23.3291C186.874 23.5555 186.974 23.7834 187.092 24.0172H187.094ZM185.393 23.0659C185.261 23.1569 185.139 23.263 185.03 23.382C184.993 23.4365 184.939 23.4767 184.877 23.4962C184.815 23.5157 184.748 23.5133 184.688 23.4894C184.688 23.4894 184.927 23.357 185.392 23.0703L185.393 23.0659ZM192.033 40.2433C191.954 40.2698 191.873 40.3006 191.772 40.3256C191.518 39.3361 191.242 38.3466 190.988 37.3498C191.069 37.3248 191.148 37.2939 191.249 37.2689C191.505 38.2643 191.759 39.2479 192.033 40.2433ZM195.613 33.4432C195.557 33.6623 195.284 34.0696 194.761 34.6194C194.286 35.1266 193.758 35.5796 193.186 35.9706C192.88 36.178 192.482 36.1603 191.941 35.8795C191.661 35.7325 191.346 34.8312 190.955 33.1771C191.7 32.9198 192.123 32.786 192.242 32.7566C192.628 32.6435 193.033 32.6179 193.429 32.6816C193.488 32.4799 193.516 32.2701 193.513 32.0597C193.511 31.8014 193.533 31.5435 193.578 31.2892C193.43 31.1965 193.289 31.0923 193.158 30.9775C193.01 30.8449 192.849 30.7281 192.678 30.6291C192.453 30.5026 191.757 30.61 190.728 30.9849C189.663 31.3745 189.093 31.6598 189.055 31.8391C188.927 32.4611 188.993 33.1991 189.242 34.074C189.487 34.9218 189.914 35.7037 190.492 36.3632C190.568 37.0087 190.854 38.4084 191.309 40.5579C191.692 42.3752 191.857 43.3706 191.811 43.5529C191.713 43.944 190.737 44.638 188.865 45.6834C186.967 46.742 186.02 47.2772 185.903 47.2287C185.727 47.1652 185.545 47.1189 185.36 47.0904C185.155 47.0616 184.953 47.0088 184.76 46.9331C184.675 46.8949 184.5 46.7008 184.301 46.3935C184.101 46.0862 183.924 45.8951 183.782 45.8422C183.539 45.7681 183.292 45.712 183.041 45.6746C182.783 45.6385 182.529 45.5844 182.278 45.5128C181.476 45.2188 180.471 44.4572 179.301 43.1295C178.417 42.1282 177.568 41.0578 176.702 39.9919C176.863 39.911 177.066 39.6978 177.288 39.3538C177.48 39.0548 177.69 38.7681 177.916 38.4951C177.997 38.5069 178.111 38.6422 178.276 38.8921C178.383 39.0835 178.525 39.2521 178.694 39.3891C181.004 40.8991 182.159 41.6533 182.159 41.6651C182.14 41.6474 183.224 41.6342 185.513 41.6754C185.418 40.8697 185.145 39.689 184.773 38.1643C184.165 37.6364 183.652 37.0039 183.258 36.2956C182.978 35.8148 182.847 34.9429 182.652 33.7432C182.518 32.9183 182.239 32.292 181.801 31.8641C182.365 31.2967 182.886 30.6862 183.36 30.038C184.109 29.0485 184.565 28.4457 184.803 28.1943C185.041 27.9429 185.975 27.4591 187.745 26.871C189.621 26.2417 190.776 26.202 191.303 26.4932C191.522 26.6152 192.367 27.4047 193.797 28.8456C193.963 29.0118 194.304 29.7278 194.849 30.9334C195.453 32.2699 195.705 33.0977 195.616 33.4476L195.613 33.4432ZM192.948 44.863C192.865 45.2379 191.818 45.9319 189.982 46.9802C188.209 47.9917 187.218 48.5549 186.998 48.5255C186.55 48.4652 185.975 48.3284 185.253 48.2402C185.074 47.8476 184.976 47.5962 184.996 47.4904C185.368 47.7089 185.775 47.8582 186.199 47.9315C190.19 45.7525 192.305 44.4336 192.452 43.8602C192.491 43.7132 192.466 43.3294 192.38 42.7222C192.235 41.7298 192.128 41.1961 192.149 41.1402C192.753 43.2486 193.025 44.5013 192.944 44.8674L192.948 44.863ZM191.361 57.9956C191.246 57.895 191.118 57.8109 190.981 57.7456C190.757 57.6236 190.621 57.4516 190.642 57.2546C190.721 56.854 190.852 56.4658 191.031 56.1004C191.291 55.5123 191.493 55.0932 191.542 54.7771C191.568 54.561 191.555 54.342 191.506 54.1302C191.526 54.2763 191.566 54.4189 191.625 54.5536C191.71 54.7445 191.743 54.9554 191.72 55.1638C191.552 56.1121 191.459 57.0561 191.352 58L191.361 57.9956ZM182.916 37.5027C182.808 37.5633 182.706 37.6363 182.613 37.7203C182.313 37.513 182.036 37.3042 181.775 37.1028C182.117 36.8366 182.418 36.7484 182.68 36.8513C182.767 37.0658 182.843 37.2847 182.908 37.5071L182.916 37.5027ZM190.363 56.9914C190.343 57.0781 190.281 57.1575 190.261 57.2502C190.085 57.1054 189.919 56.9502 189.761 56.7855C189.761 56.687 189.783 56.5885 189.783 56.4915C189.963 56.6562 190.183 56.8282 190.36 56.9929L190.363 56.9914ZM184.319 47.3286C183.797 47.2522 182.937 46.8508 181.796 46.1362C182.55 46.405 183.329 46.5904 184.122 46.6891C184.093 46.7435 184.172 46.9581 184.311 47.333L184.319 47.3286ZM189.421 56.7752C189.179 56.7341 188.617 56.6532 187.755 56.5576C187.342 56.5258 186.933 56.4599 186.531 56.3606C185.852 56.0945 185.069 55.5578 184.231 54.7124C184.479 54.7873 184.735 54.8313 184.994 54.8433C185.232 54.8549 185.468 54.8948 185.696 54.9624C185.819 55.008 186.199 55.2682 186.835 55.7255C187.472 56.1827 187.846 56.4209 187.99 56.4812C188.453 56.6332 188.931 56.7318 189.415 56.7752H189.421ZM190.959 54.8448C190.925 55.0491 190.694 55.4432 190.249 56.0563C189.859 55.9648 189.463 55.899 189.064 55.8593C188.698 55.8246 188.336 55.7567 187.981 55.6564C187.691 55.5164 187.41 55.3558 187.141 55.1756C186.682 54.8933 186.345 54.686 186.14 54.5772C185.683 54.3375 184.194 53.7273 181.612 52.979C178.82 52.1703 177.44 51.8586 177.58 51.9012C176.759 51.6292 176.137 51.2631 175.704 50.7853C175.704 50.4912 175.868 50.1501 176.092 49.7561C176.067 49.4755 176.062 49.1934 176.077 48.9121C176.09 48.4711 176.124 48.1358 176.105 47.902C176.304 48.0373 176.795 48.3828 177.504 48.9592C178.134 49.4723 178.502 49.7693 178.642 49.8149C178.782 49.8605 179.627 49.8825 181.173 49.8987C182.74 49.9134 183.563 49.984 183.703 50.0457C183.843 50.1075 184.334 50.5103 185.282 51.2675C186.252 52.0439 186.801 52.4305 186.922 52.4835C187.022 52.5276 187.342 52.5585 187.885 52.5643C188.427 52.5702 188.751 52.5923 188.895 52.6511C189.112 52.7782 189.313 52.9317 189.494 53.1083C189.678 53.2895 189.886 53.4421 190.113 53.5612C190.166 53.5921 190.225 53.6077 190.286 53.6061C190.346 53.6046 190.405 53.586 190.455 53.5524C190.51 53.4881 190.571 53.4299 190.637 53.3789C190.704 53.6225 190.783 53.8624 190.874 54.0979C190.963 54.3372 190.996 54.5946 190.969 54.8492L190.959 54.8448ZM183.629 54.4757C182.628 54.2287 181.062 53.7714 178.879 53.0628C178.416 52.9157 177.977 52.7599 177.515 52.6217C178.678 52.929 179.801 53.2304 180.979 53.5494C181.845 53.8273 182.723 54.1375 183.624 54.4816L183.629 54.4757ZM182.57 56.9517C182.594 57.0705 182.579 57.1941 182.527 57.3031C182.462 57.431 182.382 57.4825 182.286 57.4501C182.341 57.2668 182.435 57.0981 182.561 56.9561L182.57 56.9517ZM10.7449 19.252C10.4418 19.4637 9.95537 19.8033 9.23077 20.2812C8.50616 20.759 8.00096 21.0957 7.71805 21.3001C8.0811 20.9957 8.42529 20.6686 8.74866 20.3209C9.25963 19.8004 9.5974 19.4813 9.75906 19.4108C9.92563 19.3462 10.1036 19.3176 10.2816 19.327C10.4392 19.3381 10.5974 19.314 10.7449 19.2564V19.252ZM13.3965 22.3396C13.4196 22.5116 13.3272 22.8689 13.128 23.4011C12.8394 24.1774 12.7195 24.6421 12.6777 24.7773C12.6409 24.9593 12.668 25.1487 12.7542 25.3125C12.842 25.5154 12.9143 25.7247 12.9707 25.9389C13.2175 26.674 13.4442 27.8296 13.7314 29.4014C14.0461 31.1202 14.1976 31.9479 14.1774 31.8744C14.2568 32.1141 14.6985 33.0962 15.4635 34.8591C16.2285 36.622 16.6255 37.5806 16.65 37.7276C16.6645 37.8026 16.8449 38.651 17.1567 40.2742C17.4685 41.8974 17.7211 43.0795 17.9174 43.8161C17.7167 43.7132 17.5348 43.4882 17.3587 43.1177C17.2304 42.8273 17.0858 42.5445 16.9257 42.2708C16.6685 42.043 16.3867 41.8456 16.0856 41.6827C15.5905 41.3887 15.3148 41.1564 15.2672 40.9608C15.2196 40.7653 14.993 39.6376 14.6465 37.56C14.3001 35.4825 14.0778 34.3327 14.0259 34.1401C13.9984 34.0431 13.6968 33.5329 13.092 32.5875C12.503 31.6686 12.171 31.0746 12.0989 30.832C11.9704 30.4232 11.7597 29.4058 11.5475 27.7885C11.2949 25.8095 11.2126 24.2921 11.2588 23.2306C11.2588 23.1115 11.3598 22.8586 11.5475 22.4337C11.6793 22.1673 11.7629 21.8789 11.7943 21.5824C12.7773 21.7191 13.3431 21.9676 13.3965 22.3425V22.3396ZM23.7633 40.5374C23.6189 40.5874 23.4399 40.8314 23.2364 41.2549C23.2177 41.1181 23.1123 40.9785 22.8972 40.8138C22.7258 40.67 22.5173 40.5797 22.2967 40.5535C22.4194 40.233 22.5421 39.8934 22.6648 39.5596C22.7456 39.5287 22.9232 39.617 23.1657 39.8096C23.4091 40.0089 23.6121 40.2546 23.7633 40.533V40.5374ZM30.0234 45.6349C29.8589 46.0759 29.7348 46.3391 29.6366 46.4126C29.4995 46.5082 29.2122 46.5979 28.7301 46.7199C28.5685 46.7611 28.1672 46.867 27.5032 47.0052C26.8003 47.1522 26.3975 47.2389 26.2561 47.2831C26.1146 47.3272 25.6253 47.5771 24.765 48.0741C23.9322 48.5549 23.4746 48.8327 23.3331 48.8769C23.1917 48.921 22.8106 48.8548 22.1293 48.6989C21.448 48.5431 21.0467 48.4784 20.9053 48.5284C20.7638 48.5784 20.1605 48.9165 19.0909 49.5664C18.0213 50.2163 17.3977 50.5589 17.2361 50.6059C17.0744 50.653 16.4306 50.8294 15.2441 51.1484C14.0158 51.4778 13.3749 51.6807 13.232 51.7366C12.2057 52.1527 11.6168 52.382 11.4782 52.5099C11.3743 52.6055 11.0004 52.8731 10.4894 53.3539C10.1098 53.7097 9.84134 53.942 9.70133 53.9979C9.17075 54.2077 8.59565 54.2731 8.03272 54.1875C7.23017 54.0611 6.78414 53.6494 6.65568 52.9701C6.63365 52.7023 6.66962 52.4327 6.76105 52.1806C6.87364 51.7954 6.95158 51.5131 6.92704 51.3366C6.79957 50.5108 6.61679 49.6949 6.37998 48.8945C5.86315 47.1638 5.24177 45.4673 4.51939 43.8146C3.68076 41.8312 3.31268 40.8976 3.35166 41.0079C2.83031 39.5642 2.41726 38.0823 2.11608 36.5749C2.09345 36.2941 2.09345 36.0118 2.11608 35.731C2.13917 35.2752 2.14639 34.9414 2.08288 34.7518C2.02803 34.5915 1.82595 34.2783 1.40591 33.8078C0.985866 33.3374 0.786672 33.0183 0.749143 32.858C0.727491 32.7654 0.594695 32.1111 0.399831 30.8834C0.204968 29.6557 0.0967101 28.7868 0 28.2634C0.10104 28.1458 0.38251 27.8047 0.789559 27.2239C1.19661 26.6431 1.46076 26.3255 1.59933 26.2403C1.64263 26.2138 2.06267 26.2006 2.86522 26.2579C3.54652 26.3219 4.23215 26.3219 4.91345 26.2579C5.32353 26.1904 5.72299 26.0678 6.1014 25.8933C6.22099 25.5758 6.31041 25.2474 6.36843 24.9126C7.01862 24.563 7.64547 24.17 8.2449 23.7364C8.54517 23.4836 8.81634 23.1971 9.05322 22.8821C9.33181 22.541 9.53822 22.3102 9.69988 22.2367C9.86155 22.1632 10.0781 22.1823 10.3639 22.2514C10.6208 22.3146 10.8445 22.3543 11.0654 22.4072C10.9629 22.6675 10.82 22.9821 10.6771 23.3276C11.0105 27.8517 11.3584 30.36 11.4926 30.8423C11.5359 30.9893 11.7813 31.4113 12.2071 32.0994C12.6329 32.7875 12.9288 33.2756 13.0212 33.5844C13.1136 33.8931 13.245 34.2225 13.3561 34.6136C13.7179 35.9166 14.0113 37.2383 14.2352 38.5731C14.5238 40.2315 14.7216 41.052 14.7216 41.052C14.7808 41.224 15.0449 41.4813 15.54 41.8415C15.8556 42.0572 16.15 42.3033 16.4191 42.5767C16.4378 42.5958 16.5504 42.9663 16.8131 43.6764C16.9849 44.1396 17.3299 44.4866 17.8914 44.7483C18.2147 44.3454 18.5366 44.0749 18.9205 43.9411C19.0649 43.8926 19.4027 43.8852 20.0046 43.9102C20.5675 43.9337 20.9284 43.9352 21.0496 43.8911C21.0496 43.8911 21.4826 43.7014 22.2794 43.303C22.7733 43.0417 23.293 42.8342 23.8297 42.684C24.0082 42.7232 24.189 42.7507 24.371 42.7663C24.6307 42.8138 24.8971 42.8083 25.1547 42.7502C25.9992 42.4811 26.6386 42.0885 27.0904 41.5622C27.6678 40.8873 28.1008 40.5094 28.2841 40.4036C28.3865 40.6028 28.5286 40.778 28.7013 40.9182C28.9116 41.0755 29.0641 41.3002 29.1343 41.5563C29.235 42.1259 29.1536 42.7135 28.9019 43.2324C28.72 43.6441 28.5151 44.0293 28.3722 44.4175C28.6522 44.6998 29.1733 44.838 29.9166 44.8585C29.934 45.1173 29.9729 45.3746 30.0119 45.6275L30.0234 45.6349ZM21.4769 40.9005C21.3758 40.9388 21.256 40.9755 21.155 41.0137C21.077 40.6756 20.9976 40.3374 20.8995 39.9934C21.0005 39.961 21.1016 39.9243 21.2228 39.8801C21.3008 40.2242 21.3787 40.5624 21.4769 40.9005ZM32.3098 46.2068C32.2276 46.3112 31.9172 46.7141 31.4178 47.4316C31.0454 47.9638 30.7899 48.2667 30.6282 48.3034C30.4839 48.3358 30.1692 48.3034 29.7044 48.199C29.205 48.0932 28.8817 48.0711 28.7417 48.1123C28.58 48.1594 28.0041 48.499 26.9475 49.1194C25.8909 49.7399 25.2948 50.0663 25.1533 50.1104C24.4489 50.3295 22.4598 50.3913 19.1053 50.3177C19.267 50.2677 19.5874 50.0648 20.0739 49.7296C20.3632 49.5088 20.6743 49.3191 21.002 49.1636C21.1463 49.1165 21.5447 49.1724 22.2058 49.3473C22.8669 49.5223 23.2494 49.5796 23.4298 49.5238C23.5525 49.4855 24.0736 49.1974 25.0176 48.6769C25.9429 48.1696 26.4697 47.8962 26.6054 47.855C26.9906 47.782 27.3803 47.7363 27.7717 47.7183C28.1552 47.6956 28.5373 47.6524 28.9163 47.5889C30.1837 47.2728 30.6961 46.4567 30.5041 45.1408C30.4918 45.0363 30.4918 44.9307 30.5041 44.8262C30.511 44.7623 30.5046 44.6977 30.4853 44.6365C30.4507 44.4572 30.087 44.2322 29.4057 43.9587C29.5702 43.3971 29.6756 42.4664 29.6842 41.1652C30.1461 41.2549 30.5893 40.9814 31.0757 40.3256C31.1349 40.5594 31.1002 41.0152 31.0064 41.6739C30.9126 42.3326 30.8693 42.7634 30.8982 42.9428C30.9458 43.2368 31.1363 43.6897 31.412 44.3498C31.7296 45.1158 31.9894 45.751 32.3041 46.2053L32.3098 46.2068ZM1.65273 36.5911C1.48691 36.6598 1.32542 36.7388 1.16918 36.8278L1.05082 36.4911C1.20689 36.3987 1.36893 36.3172 1.53581 36.2471C1.56547 36.3648 1.60458 36.4799 1.65273 36.5911ZM18.7545 50.8441C18.6102 50.8941 18.4529 50.9441 18.3331 50.9911C18.3233 50.8788 18.3035 50.7675 18.2739 50.6588C18.4356 50.6147 18.5756 50.5706 18.7372 50.5118C18.7372 50.6221 18.756 50.7324 18.7545 50.8441ZM18.1108 51.0882C15.8128 52.4261 14.6465 53.1098 14.7028 53.0848C14.2343 53.1859 13.7582 53.2464 13.2796 53.2657C12.3558 53.3318 11.6918 53.3671 11.3497 53.4245C11.9327 53.0656 12.5462 52.761 13.1829 52.5144C14.0067 52.2045 14.8466 51.9409 15.6988 51.7248C16.8045 51.4307 17.6301 51.2205 18.1137 51.0882H18.1108ZM6.20677 51.1529C6.12305 51.6087 5.99892 52.2188 5.7925 52.9834C5.71456 52.7437 5.50382 52.2041 5.18049 51.3558C5.2007 51.3558 5.38257 51.3205 5.60341 51.2911C5.80922 51.2696 6.01177 51.2232 6.20677 51.1529ZM41.6056 11.8329C41.3631 12.0314 40.9214 12.0343 40.2993 11.8329C40.4205 11.802 40.6226 11.5918 40.8867 11.1889C40.9652 11.1778 41.0452 11.1839 41.1212 11.207C41.1971 11.2301 41.2673 11.2696 41.327 11.3227C41.4047 11.3827 41.4695 11.4582 41.5174 11.5447C41.5654 11.6312 41.5953 11.7268 41.6056 11.8255V11.8329ZM48.5557 20.9178C48.5772 21.2028 48.5553 21.4895 48.4908 21.7676C48.4373 22.0396 48.3363 22.3087 48.2843 22.5998C48.2742 22.6601 48.4287 22.8454 48.6423 23.1585C48.7028 23.6476 48.7934 24.1323 48.9137 24.6097C49.1114 25.414 49.2615 25.9447 49.3048 26.227C49.3714 26.6107 49.3961 27.0008 49.3785 27.39C49.2644 29.1323 49.2471 30.1409 49.2211 30.435C49.0999 31.6318 48.8646 32.564 48.5398 33.2844C48.0086 34.4607 45.5259 36.5044 41.034 39.4008C40.8896 39.4376 40.6933 39.3685 40.4321 39.2009C40.1145 38.9965 39.9528 38.8833 39.9124 38.8656C41.2664 37.5086 42.284 36.7029 42.9436 36.4088C44.2817 35.8104 45.1218 35.3649 45.4826 35.1135C46.3497 34.5103 47.0198 33.6567 47.4067 32.6625C47.7171 31.9024 47.9971 30.8055 48.2122 29.3764C48.4157 28.0193 48.4879 27.171 48.4489 26.849C48.4489 26.849 48.2136 26.1138 47.7806 24.6435C47.442 23.5277 47.1678 22.3927 46.9593 21.2442C46.937 21.0118 46.9453 20.7775 46.9838 20.5473C47.0231 20.3315 47.0231 20.1103 46.9838 19.8945C46.8207 19.374 46.4685 18.6609 45.9532 17.7582C46.3155 17.6876 46.5695 17.7082 46.6547 17.8581C46.7283 17.9861 47.1195 18.5345 47.769 19.4902C48.254 20.2033 48.5312 20.6855 48.5629 20.9266L48.5557 20.9178ZM47.7517 27.2283C47.7878 27.4194 47.7171 28.1222 47.5179 29.3411C47.3754 30.3065 47.1827 31.2636 46.9405 32.2082C46.7067 33.0448 46.0615 33.949 44.8562 34.6959C44.1778 35.1164 43.0663 35.5781 41.7311 36.4088C41.6503 36.4588 41.2736 36.7969 40.6197 37.388C40.1217 37.8379 39.8128 38.0952 39.6512 38.132C39.4895 38.1687 39.2513 38.0408 38.8298 37.7556C38.1904 37.3145 37.8194 37.0998 37.7704 37.0719C37.2421 36.8014 36.428 36.5632 35.2833 36.4161C34.9268 35.7589 34.3206 35.1899 33.4877 34.69C32.7022 34.2443 31.9878 33.6796 31.3687 33.0154C30.9388 32.4861 30.5778 31.9025 30.2948 31.2789C30.0388 30.7797 29.8337 30.255 29.6828 29.7131C29.3089 28.0958 29.6828 25.6183 31.0165 22.3087C32.3864 18.8903 33.9222 17.0157 35.2718 16.5996C35.3728 16.5187 35.5345 16.382 35.7568 16.1776C35.9978 16.0967 36.4236 15.9218 37.0458 15.6586C37.3757 15.5118 37.7129 15.3827 38.0562 15.2719C38.4993 15.1557 39.605 15.3337 41.3068 15.8306C42.9335 16.3055 44.0493 16.751 44.6729 17.1289C44.9529 17.2994 45.2502 17.6685 45.5895 18.2434C45.9287 18.8182 46.2246 19.3858 46.5031 19.9445C46.8881 22.3744 47.3071 24.8023 47.7604 27.2283H47.7517ZM30.6369 21.2266C29.6106 21.5603 29.0275 21.7353 28.8456 21.7559C28.9683 21.5515 29.4129 21.1295 30.24 20.4723C30.4204 20.6061 30.5388 20.859 30.6369 21.228V21.2266ZM28.6161 20.4635C28.2266 20.5455 27.8728 20.7515 27.6057 21.0516C27.7199 20.8832 27.8697 20.743 28.044 20.6413C28.2184 20.5395 28.4128 20.4788 28.6132 20.4635H28.6161ZM51.763 44.1499C51.3184 44.5718 50.897 44.8086 50.513 44.885C50.3687 44.91 49.709 44.885 48.4648 44.8159C47.2797 44.7453 46.5594 44.7409 46.457 44.7615C46.1245 44.8572 45.806 44.9976 45.5101 45.1791C45.0702 45.4357 44.6124 45.6588 44.1402 45.8466C43.98 45.7172 43.9006 45.4599 43.8631 45.0909C44.2035 44.9658 44.5337 44.8134 44.8504 44.6351C45.118 44.4757 45.4015 44.3461 45.6963 44.2484C45.8406 44.2175 46.4396 44.2484 47.4832 44.3484C48.5268 44.4483 49.1302 44.4954 49.2904 44.4601C49.8534 44.3513 50.4452 44.0352 51.0442 43.5206C51.0644 43.4897 50.8796 43.1148 50.5693 42.409C50.3254 41.8503 50.1521 41.4798 50.1146 41.2593C50.0771 41.0387 50.0973 40.7741 50.08 40.5241C50.6819 40.4653 51.1048 40.2962 51.3877 40.0301C51.5537 42.3076 51.6461 43.6794 51.763 44.1469V44.1499ZM41.8596 41.2416C41.9491 41.7474 41.7153 42.1679 41.249 42.4708C40.9113 42.6899 40.5432 42.881 40.1997 43.0927C40.3036 42.5561 40.4883 41.718 40.7193 40.5712C40.8997 40.533 41.1004 40.4947 41.3227 40.4506C41.6388 40.7138 41.8105 40.9785 41.8596 41.2416ZM50.1218 43.353C49.9854 43.3988 49.8562 43.4641 49.7379 43.547C49.5827 43.6462 49.4132 43.7202 49.2356 43.7661C49.0912 43.7941 48.4922 43.7661 47.4471 43.6779C46.4021 43.5897 45.7814 43.5676 45.6198 43.6014C45.3738 43.698 45.1379 43.8192 44.9154 43.9631C44.7172 44.1264 44.4877 44.2455 44.2415 44.3129C43.9954 44.3802 43.7382 44.3943 43.4864 44.3542C43.2729 44.3295 43.0575 44.3295 42.844 44.3542C40.9881 44.7216 39.1787 45.3006 37.4499 46.0804C37.3065 46.1989 37.1772 46.3341 37.0645 46.4832C36.9446 46.6463 36.7849 46.7746 36.6012 46.8552C36.4193 46.8993 35.5374 46.7508 33.9915 46.4273C33.8597 45.7832 33.8372 45.1208 33.9251 44.4689C34.1459 44.4057 34.3667 44.3498 34.6092 44.2866C34.7536 44.2498 35.4926 44.2866 36.7744 44.4028C38.0995 44.5292 38.7952 44.5865 38.9395 44.5498C39.0218 44.5292 39.5775 44.1837 40.5533 43.5485C41.309 43.0388 42.1046 42.5933 42.9321 42.2164C45.855 40.9814 47.4067 40.3242 47.7257 40.2668C48.005 40.2279 48.2871 40.2141 48.5687 40.2257C48.871 40.2359 49.1736 40.2217 49.4737 40.183C49.5488 40.8848 49.7629 41.9425 50.1161 43.3559L50.1218 43.353ZM40.1376 40.4447C40.2401 41.1122 39.9658 42.0782 39.234 43.375C38.2568 42.4149 37.6967 41.5622 37.5639 40.7991C37.5407 40.6785 37.5291 40.5559 37.5293 40.433C37.8455 40.514 38.1762 40.5165 38.4935 40.4403C38.923 40.325 39.3046 40.0718 39.5819 39.7184C39.9427 39.9875 40.1073 40.2345 40.1405 40.4418L40.1376 40.4447ZM44.9601 46.2112C44.8793 46.3906 44.7898 46.5714 44.696 46.742C44.5661 46.9787 44.4073 47.1287 44.2514 47.1566C43.9512 47.211 43.5903 46.9272 43.1125 46.3259C43.7283 46.4423 44.3628 46.4029 44.9601 46.2112ZM41.6316 45.5158C40.6009 46.2803 39.973 46.6582 39.7349 46.7038C38.8428 46.8758 37.9854 47.1213 37.1194 47.3286C38.1298 46.4979 38.9958 46.0598 39.7002 45.9348C40.3483 45.8172 40.9878 45.6407 41.6316 45.5158ZM36.2735 47.6918C35.8925 47.7065 35.5302 47.7197 35.1693 47.7286C35.1398 47.6138 35.12 47.4968 35.1101 47.3786C35.4926 47.3507 35.8549 47.3242 36.236 47.3036C36.2375 47.4338 36.2491 47.5635 36.2706 47.6918H36.2735ZM37.9277 49.6826C37.8064 49.9046 37.6635 50.1237 37.5423 50.3442C37.2623 50.031 37.0025 49.9031 36.8206 49.9605C37.1829 49.8722 37.5423 49.7767 37.9263 49.6826H37.9277ZM45.4451 26.7593C45.4047 26.5446 45.2387 26.1315 44.9515 25.5184C44.6642 24.9052 44.5112 24.5568 44.4766 24.4509C44.3726 24.1378 44.3207 23.632 44.325 22.9233C44.3293 22.2146 44.3163 21.7471 44.2543 21.5148C44.0769 20.8828 43.7952 20.2862 43.4214 19.7504C43.0259 19.1623 42.6174 18.7903 42.2234 18.5933C41.6561 18.3095 40.741 18.0787 39.4808 17.9449C38.4358 17.8346 37.7487 17.7979 37.473 17.8714C36.9895 17.9905 36.0094 19.5828 34.6294 22.666C33.8904 24.3186 33.2221 25.9506 32.5682 27.5679C33.3636 28.8324 34.5169 30.6658 36.0483 33.0521C36.5083 33.0807 36.9613 33.1798 37.3922 33.3462C37.6303 33.4359 38.0547 33.6138 38.5946 33.7873C39.2585 33.9931 39.7176 34.0813 39.9586 34.0255C40.5836 33.8872 41.4598 33.0698 42.6463 31.5951C43.3412 30.7641 43.9714 29.8792 44.5314 28.9485C45.1795 27.7885 45.5014 27.0533 45.4451 26.7593ZM44.0118 24.9023C44.0738 25.2214 44.0536 25.7757 44.0204 26.5711C43.9815 27.5077 43.8559 28.1737 43.6654 28.5927C43.4286 29.1176 42.9133 29.7278 42.1281 30.4071C41.4785 30.9672 40.9733 31.2966 40.715 31.3569C40.5345 31.398 40.3498 31.3333 40.1549 31.1452C39.9525 30.9452 39.739 30.7571 39.5155 30.582C39.9384 30.435 40.3455 30.2968 40.764 30.1321C41.2183 29.9686 41.6079 29.659 41.8741 29.2499C42.2104 28.6957 42.4399 27.8635 42.5323 26.7505C42.6131 25.7845 42.6665 24.817 42.7127 23.8496C43.4734 24.0907 43.9194 24.4377 44.0118 24.9008V24.9023ZM42.0184 19.374C41.5816 19.5554 41.1201 19.668 40.65 19.7078C40.5057 19.7195 40.1867 19.5607 39.6281 19.327C39.2441 19.1638 38.9482 19.0873 38.7865 19.1285C38.4242 19.2196 38.0778 19.6122 37.7343 20.3047C37.2435 21.2986 36.9202 21.9544 36.6762 22.2631C36.4352 22.3513 36.0729 22.494 35.6297 22.7042C34.602 26.1344 34.1401 28.0664 34.2455 28.5133C34.2772 28.6457 34.6092 29.1603 35.1996 30.1086C35.7028 30.8951 36.1602 31.7111 36.5694 32.5522C34.4808 29.5469 33.3852 27.9149 33.3275 27.6267C33.3073 27.5219 33.6821 26.4809 34.4519 24.5039C35.2732 22.4013 36.0079 20.7002 36.6344 19.4475C36.9043 18.9079 37.2233 18.6021 37.5639 18.5183C37.9046 18.4345 39.3711 18.7227 42.0184 19.3725V19.374ZM42.1483 24.0789C42.0415 25.1081 41.7903 26.624 41.4165 28.603C41.3963 28.6339 41.0022 28.9118 40.2459 29.4661C39.7305 29.8439 39.3986 30.0689 39.2355 30.1071C38.6321 30.2542 37.8642 29.7043 36.8956 28.5442C36.07 27.5532 35.5691 26.8813 35.5027 26.4858C35.4724 26.3005 35.6312 25.2052 36.0065 23.1762C36.6011 23.3111 37.217 23.3161 37.8137 23.1909C38.0656 23.0939 38.3032 22.9618 38.5195 22.7983C38.7479 22.6244 38.9991 22.4838 39.2658 22.3808C39.4462 22.3381 39.898 22.5498 40.5475 22.9953C41.5781 23.704 42.1064 24.0525 42.1469 24.076L42.1483 24.0789ZM66.9436 16.6525C66.8787 17.2406 66.8354 17.817 66.7502 18.4021C66.6708 18.4213 66.5698 18.4286 66.4702 18.4418C66.5337 17.8537 66.5972 17.2656 66.6824 16.6775C66.7618 16.6643 66.8426 16.6525 66.9436 16.6452V16.6525ZM65.6258 18.4654C65.6647 18.9065 65.4367 19.7092 64.9271 20.8649C64.4321 20.9564 63.9482 21.1018 63.4837 21.2986C63.3676 21.2033 63.2727 21.0841 63.2051 20.9487C63.1345 20.8097 63.0478 20.6799 62.9468 20.562C63.2686 20.4312 63.7074 19.9254 64.2011 19.0579C64.6009 18.3566 64.9329 17.7787 65.0758 17.3097C65.1349 17.4796 65.2223 17.6377 65.3342 17.7773C65.4902 17.9765 65.5926 18.2136 65.6315 18.4654H65.6258ZM66.5669 21.9323C66.4052 22.2102 66.2421 22.4763 66.0805 22.7542C65.8582 22.7733 65.6373 22.7998 65.4165 22.8321C65.6604 22.3499 65.8841 21.95 66.0473 21.6559C66.2308 21.7257 66.4053 21.8181 66.5669 21.9308V21.9323ZM61.7675 15.5498C61.2825 16.1203 60.7773 16.679 60.2908 17.2656C59.7236 17.9478 59.4378 18.6315 59.4334 19.2843C59.8787 19.6721 60.2987 20.0891 60.6907 20.5326C59.6499 19.9224 59.1029 19.2299 58.9975 18.461C58.9456 18.0728 59.1534 17.6508 59.6283 17.1524C60.1032 16.654 60.5983 16.1614 61.1049 15.6409C61.3258 15.6086 61.5466 15.5763 61.7675 15.5498ZM54.8505 13.0856C54.4109 13.463 54.0697 13.9454 53.8574 14.4897C54.0454 13.9322 54.3909 13.4437 54.8505 13.0856ZM53.9325 12.1799C53.5456 12.7942 53.2881 13.4836 53.1761 14.2045C52.9755 14.2353 52.7561 14.2971 52.5526 14.3177C52.3736 14.3368 52.2913 14.1574 52.2552 13.834C52.196 13.3135 52.5843 12.6121 53.4331 11.7388C53.5962 11.8844 53.7564 12.0314 53.9354 12.1784L53.9325 12.1799ZM52.0445 12.3269C51.9386 12.4822 51.8559 12.6527 51.7991 12.8327C51.7761 12.912 51.7318 12.9831 51.671 13.038C51.6103 13.0929 51.5356 13.1292 51.4556 13.1429C51.4556 13.1429 51.662 12.8812 52.0474 12.3313L52.0445 12.3269ZM64.025 24.2083C63.9614 24.2964 63.8867 24.3755 63.8027 24.4436C63.1849 23.6643 62.5873 22.8924 61.9493 22.1205C62.0303 22.0443 62.1046 21.9612 62.1716 21.872C62.7894 22.6454 63.4072 23.4291 64.025 24.2083ZM64.9228 15.438C64.9445 15.6836 64.7972 16.257 64.4898 17.1583C64.2208 17.9421 63.8936 18.704 63.5111 19.4372C63.3091 19.8269 62.9063 20.0606 62.3218 20.14C62.0013 20.1827 61.3619 19.5519 60.4265 18.2537C61.014 17.5185 61.3936 17.1054 61.4788 17.0157C61.9118 16.5599 62.2871 16.2805 62.5888 16.1482C62.5592 15.9338 62.507 15.7233 62.4329 15.5204C62.3492 15.2601 62.2902 14.9923 62.2568 14.7205C62.0974 14.7353 61.9369 14.7294 61.779 14.7029C61.5925 14.6753 61.4033 14.6723 61.2161 14.6941C60.8942 14.7367 60.3269 15.2822 59.458 16.3482C58.589 17.4141 58.1704 18.0405 58.195 18.2316C58.2686 18.8962 58.5977 19.5328 59.1664 20.1841C59.6834 20.8008 60.3533 21.2649 61.1064 21.528C61.4643 22.0676 62.2323 23.2144 63.4548 24.9494C64.5215 26.4637 65.0354 27.3018 65.0657 27.5018C65.1321 27.9502 64.4696 29.2044 63.0925 31.276C61.691 33.3844 60.9029 34.4342 60.8018 34.4489C60.6031 34.4837 60.4092 34.543 60.2244 34.6253C60.0373 34.7119 59.8412 34.777 59.6398 34.8194C59.52 34.8371 59.2977 34.7621 58.999 34.5827C58.7002 34.4033 58.4981 34.3224 58.3379 34.346C58.0777 34.4019 57.8219 34.4775 57.5728 34.5724C57.3176 34.6697 57.055 34.7454 56.7876 34.7988C55.9216 34.9341 54.7322 34.7062 53.218 34.0637C52.0474 33.5711 50.8739 33.0492 49.7321 32.5449C49.9015 32.2708 50.0131 31.9639 50.0598 31.6436C50.1767 31.0658 50.2662 30.6997 50.308 30.5526C50.3687 30.5085 50.5534 30.5526 50.8089 30.7085C50.9717 30.8218 51.1553 30.9003 51.3488 30.9393C54.0393 31.1422 55.3644 31.2481 55.3904 31.2422C55.35 31.2481 56.3984 30.66 58.5356 29.4778C57.9376 28.4893 57.2724 27.5446 56.5451 26.6505C55.7891 26.4839 55.0713 26.1715 54.4305 25.7301C53.9787 25.4257 53.5399 24.7097 52.9163 23.7202C52.4833 23.035 51.9997 22.6234 51.4729 22.466C51.7759 21.6395 52.036 20.7973 52.2523 19.943C52.6103 18.6198 52.8095 17.7846 52.9322 17.4435C53.0549 17.1024 53.8401 16.11 55.3413 14.4603C56.9565 12.6857 58.1098 11.7932 58.6742 11.7123C58.9138 11.6785 59.9401 11.8417 61.7054 12.2358C61.9291 12.2857 62.4646 12.7268 63.3653 13.5252C64.3613 14.4074 64.8853 15.044 64.9199 15.4366L64.9228 15.438ZM66.6275 28.1311C66.6756 28.5486 65.9914 29.7989 64.575 31.8818C63.2152 33.8784 62.4675 34.9885 62.2236 35.0973C61.8165 35.2781 61.2132 35.4722 60.5117 35.7913C60.1927 35.5281 60.0325 35.3384 60.0137 35.2281C60.3154 35.2443 60.7166 35.162 61.281 34.9679C64.383 30.557 65.9 28.0575 65.8091 27.4224C65.7846 27.2562 65.6214 26.9122 65.2938 26.3932C64.7453 25.5228 64.4782 25.0699 64.4782 25.0126C65.8538 26.6711 66.5799 27.712 66.6275 28.1252V28.1311ZM68.8648 42.3796C68.7253 42.3325 68.5788 42.3106 68.4318 42.3149C68.1691 42.2973 68.0204 42.1767 68.0118 41.9533C68.0031 41.7298 68.0868 41.2534 68.2427 40.5109C68.3986 39.7684 68.4665 39.2229 68.4333 38.8598C68.4145 38.6358 68.362 38.4161 68.2774 38.2084C68.2774 38.2628 68.3553 38.376 68.5155 38.5819C68.6379 38.7533 68.7068 38.9582 68.7133 39.17C68.7912 40.2418 68.8389 41.3049 68.8721 42.3767L68.8648 42.3796ZM54.5431 27.021C54.481 27.1445 54.3987 27.268 54.3396 27.3915C53.9989 27.3562 53.677 27.315 53.3364 27.268C53.5601 26.8357 53.8228 26.6005 54.0841 26.549C54.2284 26.7152 54.4031 26.8681 54.5431 27.021ZM67.6783 41.8077C67.6394 41.9166 67.6184 42.0314 67.6163 42.1473C67.4156 42.0738 67.215 42.0003 67.0144 41.9165C67.0219 41.8043 67.0092 41.6917 66.9768 41.5842C67.2237 41.6563 67.4431 41.7357 67.6841 41.8077H67.6783ZM59.3252 35.4472C58.781 35.6781 57.837 35.7339 56.5119 35.631C57.3343 35.5139 58.1389 35.2916 58.9066 34.9694C58.9066 35.0252 59.0509 35.1782 59.3252 35.4472ZM66.6737 42.0782C66.3922 42.1547 65.8076 42.3488 64.9026 42.6987C64.1924 42.9751 63.7479 43.1398 63.5934 43.1618C62.8717 43.2633 62.0056 43.1163 61.0053 42.7281C61.2828 42.6666 61.5529 42.5744 61.8108 42.4532C62.0371 42.3434 62.2729 42.2553 62.5152 42.19C62.6595 42.1694 63.0925 42.2238 63.8143 42.3488C64.536 42.4737 64.9777 42.5237 65.1133 42.5076C65.6424 42.4153 66.1615 42.2715 66.6636 42.0782H66.6737ZM67.8573 39.245C67.866 39.467 67.713 40.0095 67.4041 40.8799C66.9742 40.9905 66.5511 41.1265 66.1367 41.2872C65.493 41.5136 65.1494 41.6327 64.982 41.6518C64.6736 41.6599 64.365 41.6471 64.0582 41.6136C63.5357 41.5724 63.1748 41.5489 62.8933 41.5533C62.4112 41.5607 60.7802 41.8195 58.0679 42.3458C55.0887 42.9236 53.703 43.228 53.8242 43.1957C52.9798 43.3236 52.2769 43.2795 51.776 43.0413C51.7385 42.7472 51.8208 42.3517 51.9651 41.8518C51.8769 41.596 51.8112 41.3328 51.7688 41.0652C51.7179 40.7431 51.6391 40.4263 51.5335 40.1183C52.0761 40.1671 52.6133 40.2655 53.1386 40.4124C53.9007 40.6035 54.3222 40.6991 54.4825 40.6756C54.6427 40.652 55.4467 40.2639 56.9608 39.5405C58.5096 38.8054 59.3194 38.4246 59.4998 38.3981C59.5807 38.3863 60.2432 38.4701 61.3647 38.6922C62.4863 38.9142 63.1113 39.0156 63.2311 39.0009C63.3755 38.9833 63.6988 38.8318 64.2415 38.5334C64.7842 38.2349 65.1076 38.079 65.2692 38.0643C65.516 38.0736 65.7597 38.1232 65.991 38.2114C66.2161 38.2966 66.4537 38.3428 66.6939 38.3481C66.7571 38.3466 66.8191 38.3302 66.875 38.3001C66.9308 38.27 66.9791 38.227 67.0158 38.1746C67.0754 38.0797 67.1298 37.9815 67.1789 37.8806C67.2932 38.1025 67.426 38.314 67.5759 38.5128C67.7364 38.7249 67.8354 38.9785 67.8617 39.245H67.8573ZM60.3414 42.8193C59.2747 43.1016 57.6263 43.4074 55.3341 43.7294C54.8318 43.7985 54.3699 43.8646 53.8906 43.9279C55.0974 43.6941 56.2839 43.4588 57.5108 43.2118C58.4557 43.0824 59.4007 42.9516 60.3457 42.8193H60.3414ZM59.4984 45.9069C59.5324 45.9612 59.5534 46.0228 59.5599 46.0869C59.5665 46.1509 59.5582 46.2156 59.5359 46.2759C59.4652 46.4597 59.3916 46.542 59.2934 46.5553C59.3188 46.3273 59.3901 46.107 59.5027 45.9083L59.4984 45.9069Z" fill="white"/>
</svg>
